<svg xmlns="http://www.w3.org/2000/svg" version="1.1" xmlns:xlink="http://www.w3.org/1999/xlink" xmlns:svgjs="http://svgjs.dev/svgjs" width="100%" height="100%" viewBox="0 0 1000 600"><rect width="1000" height="600" x="0" y="0" fill="#ffe8f5"/><g><rect width="333.3333333333333" height="333.3333333333333" y="232.3814650228499" fill="#8000ff" transform="matrix(0.5947870320953675,0,0,0.5947870320953677,0,62.65134200934672)" x="210.15914916992185"/><path d="M240.7651514859225 474.04813434650845L240.7651514859225 474.04813434650845Q237.02674332759958 474.04813434650845 234.94018993690773 471.8746412312044Q232.85363654621588 469.67216820769636 232.85363654621588 465.701920783741L232.85363654621588 465.701920783741L232.85363654621588 332.3943430450945Q232.85363654621588 328.2212362637108 234.94018993690773 326.1346828730189Q237.02674332759958 324.04812948232706 240.7651514859225 324.04812948232706L240.7651514859225 324.04812948232706Q244.12682083759273 324.04812948232706 246.09745459546835 325.38120525971357Q248.068088353344 326.74326094530403 249.7489230291791 329.87309103134186L249.7489230291791 329.87309103134186L306.9262819157768 437.53345000940095L300.6666217437013 437.53345000940095L357.6121413646666 329.87309103134186Q359.2929760405017 326.74326094530403 361.1766700737652 325.38120525971357Q363.0603641070287 324.04812948232706 366.5959129079232 324.04812948232706L366.5959129079232 324.04812948232706Q370.1314617088177 324.04812948232706 372.21801509950956 326.1346828730189Q374.3045684902014 328.2212362637108 374.3045684902014 332.3943430450945L374.3045684902014 332.3943430450945L374.3045684902014 465.701920783741Q374.3045684902014 469.67216820769636 372.3339347323258 471.8746412312044Q370.3633009744502 474.04813434650845 366.39305355049487 474.04813434650845L366.39305355049487 474.04813434650845Q362.62566548396785 474.04813434650845 360.539112093276 471.8746412312044Q358.45255870258416 469.67216820769636 358.45255870258416 465.701920783741L358.45255870258416 465.701920783741L358.45255870258416 348.4492121901402L363.4660828218854 348.4492121901402L311.302248054589 446.3143621952292Q309.8532526443863 449.00949365820617 308.2883376013674 450.1686899863683Q306.7234225583485 451.3278863145304 303.7964518297391 451.3278863145304L303.7964518297391 451.3278863145304Q300.8694811011296 451.3278863145304 299.18864642529456 450.0527703535521Q297.53679165766346 448.8066343007778 296.29065560488925 446.3143621952292L296.29065560488925 446.3143621952292L243.48926285710354 348.2463528327118L248.50278697640482 348.2463528327118L248.50278697640482 465.701920783741Q248.50278697640482 469.67216820769636 246.5031733103251 471.8746412312044Q244.53253955244946 474.04813434650845 240.7651514859225 474.04813434650845ZM472.16971849529045 472.5991389363058L420.2087430854224 472.5991389363058Q415.6299175891819 472.5991389363058 413.22458520824546 470.19380655536935Q410.819252827309 467.7884741744329 410.819252827309 463.2096486781924L410.819252827309 463.2096486781924L410.819252827309 334.8866151506431Q410.819252827309 330.30778965440265 413.22458520824546 327.9024572734662Q415.6299175891819 325.49712489252977 420.2087430854224 325.49712489252977L420.2087430854224 325.49712489252977L469.6774463897418 325.49712489252977Q484.89189819687 325.49712489252977 495.4405847831455 329.98901066415806Q505.989271369421 334.4808964357864 511.61137356100744 343.0299693559822Q517.2334757525938 351.579042276178 517.2334757525938 363.8955032629008L517.2334757525938 363.8955032629008Q517.2334757525938 377.66095965982623 509.206041180071 386.8475905605112Q501.1786066075481 396.0342214611962 487.4131502106227 398.93221228160155L487.4131502106227 398.93221228160155L487.4131502106227 396.0342214611962Q503.0623006408116 397.8889355862556 511.93015255125204 407.278425844369Q520.7980044616924 416.66791610248237 520.7980044616924 432.11420717524294L520.7980044616924 432.11420717524294Q520.7980044616924 451.7336050293872 508.0758247601128 462.16637198284644Q495.32466515032934 472.5991389363058 472.16971849529045 472.5991389363058L472.16971849529045 472.5991389363058ZM427.5116799528439 404.98901309624875L427.5116799528439 458.8336825393803L470.51786372765946 458.8336825393803Q487.21029085319435 458.8336825393803 495.55650441596174 452.13932374424394Q503.90271797872913 445.4739448573116 503.90271797872913 431.91134781781454L503.90271797872913 431.91134781781454Q503.90271797872913 418.1458914208891 495.55650441596174 411.5674522585689Q487.21029085319435 404.98901309624875 470.51786372765946 404.98901309624875L470.51786372765946 404.98901309624875L427.5116799528439 404.98901309624875ZM427.5116799528439 339.2625812894552L427.5116799528439 391.2235566993233L467.15619437598923 391.2235566993233Q483.44290278666733 391.2235566993233 491.905035982251 384.55817781239097Q500.33818926963056 377.86381901725457 500.33818926963056 365.34449867310343L500.33818926963056 365.34449867310343Q500.33818926963056 352.41945961409556 491.905035982251 345.84102045177536Q483.44290278666733 339.2625812894552 467.15619437598923 339.2625812894552L467.15619437598923 339.2625812894552L427.5116799528439 339.2625812894552Z " fill="#ffe8f5" transform="matrix(0.5947870320953675,0,0,0.5947870320953677,0,62.65134200934672)"/><path d="M633.1239013577759 443.4579134254516L633.1239013577759 443.4579134254516Q630.1478847424943 443.4579134254516 628.4868522130347 441.7276712072645Q626.8258196835751 439.97435909283496 626.8258196835751 436.81378330761333L626.8258196835751 436.81378330761333L626.8258196835751 330.6922605921412Q626.8258196835751 327.3701955332221 628.4868522130347 325.7091630037625Q630.1478847424943 324.048130474303 633.1239013577759 324.048130474303L633.1239013577759 324.048130474303Q635.8000093219052 324.048130474303 637.3687622663948 325.1093457014577Q638.9375152108845 326.1936308248549 640.2755691929491 328.6851796190443L640.2755691929491 328.6851796190443L685.7924744793896 414.3898441599092L680.8093768910109 414.3898441599092L726.1417230075115 328.6851796190443Q727.4797769895762 326.1936308248549 728.9793202453383 325.1093457014577Q730.4788635011004 324.048130474303 733.2933908426846 324.048130474303L733.2933908426846 324.048130474303Q736.1079181842689 324.048130474303 737.7689507137285 325.7091630037625Q739.429983243188 327.3701955332221 739.429983243188 330.6922605921412L739.429983243188 330.6922605921412L739.429983243188 436.81378330761333Q739.429983243188 439.97435909283496 737.8612302986984 441.7276712072645Q736.2924773542088 443.4579134254516 733.1319015689871 443.4579134254516L733.1319015689871 443.4579134254516Q730.132815057463 443.4579134254516 728.4717825280034 441.7276712072645Q726.8107499985438 439.97435909283496 726.8107499985438 436.81378330761333L726.8107499985438 436.81378330761333L726.8107499985438 343.47298311048286L730.8018420484952 343.47298311048286L689.2760288120062 421.3800227213849Q688.1225339998815 423.5255230719368 686.8767596027868 424.4483189216366Q685.6309852056921 425.3711147713363 683.3009256852002 425.3711147713363L683.3009256852002 425.3711147713363Q680.9708661647084 425.3711147713363 679.6328121826438 424.3560393366666Q678.3178280968216 423.36403379823935 677.3258225583944 421.3800227213849L677.3258225583944 421.3800227213849L635.2924716045703 343.3114938367854L639.2835636545218 343.3114938367854L639.2835636545218 436.81378330761333Q639.2835636545218 439.97435909283496 637.6917408137898 441.7276712072645Q636.1229878693001 443.4579134254516 633.1239013577759 443.4579134254516ZM800.242229738402 443.803961869089L800.242229738402 443.803961869089Q788.4304428622451 443.803961869089 779.8023016675523 438.65937500701284Q771.1741604728596 433.4917182486942 766.421761846906 424.12534037424166Q761.6924331171947 414.73589260354663 761.6924331171947 401.93210018896247L761.6924331171947 401.93210018896247Q761.6924331171947 392.3119534558425 764.3454711850815 384.583538214607Q767.0215791492108 376.8551229733716 772.1661660112869 371.38755756390054Q777.3107528733631 365.896922258187 784.3701411235662 362.9901153316327Q791.4295293737694 360.08330840507847 800.242229738402 360.08330840507847L800.242229738402 360.08330840507847Q812.0309467183164 360.08330840507847 820.6590879130092 365.2278952671546Q829.3102990039444 370.3724821292308 834.0396277336557 379.7619298999258Q838.7689564633669 389.15137767062083 838.7689564633669 401.93210018896247L838.7689564633669 401.93210018896247Q838.7689564633669 411.57531681832495 836.1159183954801 419.21145247459043Q833.4628803275933 426.84758813085597 828.2952235692746 432.43050302153944Q823.1506367071985 437.9903480159805 816.0912484569953 440.89715494253477Q809.0318602067922 443.803961869089 800.242229738402 443.803961869089ZM800.242229738402 433.00725042760183L800.242229738402 433.00725042760183Q807.71687612097 433.00725042760183 813.3459308041386 429.3391369250453Q818.9980553835495 425.69409331873123 822.0663515838013 418.72698465349805Q825.1577176802955 411.7368060920224 825.1577176802955 401.93210018896247L825.1577176802955 401.93210018896247Q825.1577176802955 386.82131815012895 818.4213079774872 378.8622039464686Q811.684898274679 370.88001984656563 800.242229738402 370.88001984656563L800.242229738402 370.88001984656563Q792.583024185894 370.88001984656563 787.023179191453 374.4558537641522Q781.4633341970119 378.0316876817388 778.3950379967603 384.90651676200196Q775.3267417965086 391.80441573850766 775.3267417965086 401.93210018896247L775.3267417965086 401.93210018896247Q775.3267417965086 416.88139295409854 782.1323611880442 424.95585663897145Q788.93798057958 433.00725042760183 800.242229738402 433.00725042760183ZM843.5905647780481 474.02552594675603L843.5905647780481 474.02552594675603Q841.0990159838587 474.1870152204535 839.5071931431266 473.19500968202624Q837.9384401986371 472.203004143599 837.3616927925748 470.6342511991094Q836.7849453865124 469.0424283583773 837.0156443489374 467.47367541388775Q837.2694132076048 465.88185257315564 838.445977915972 464.72835776103096Q839.5994727280967 463.5748629489063 841.5834838049511 463.5748629489063L841.5834838049511 463.5748629489063Q850.7191627169788 463.0673252315714 855.1255128992951 458.6609750492551Q859.5318630816115 454.25462486693874 859.5318630816115 444.79596740751623L859.5318630816115 444.79596740751623L859.5318630816115 367.2349762402516Q859.5318630816115 363.9129111813325 861.285175196041 362.15959906690296Q863.0154174142281 360.4062869524734 866.3374824731471 360.4062869524734L866.3374824731471 360.4062869524734Q869.4980582583688 360.4062869524734 871.2513703727983 362.15959906690296Q872.9816125909854 363.9129111813325 872.9816125909854 367.2349762402516L872.9816125909854 367.2349762402516L872.9816125909854 443.803961869089Q872.9816125909854 453.93164631954386 869.5903378433388 460.4834968524121Q866.1759931994496 467.05841728152285 859.6933523553089 470.288202755472Q853.2107115111681 473.5410581256636 843.5905647780481 474.02552594675603ZM866.1759931994496 342.1349291284182L866.1759931994496 342.1349291284182Q862.0234118758008 342.1349291284182 859.6933523553089 339.8971491928963Q857.363292834817 337.6593692573744 857.363292834817 333.8297664811204L857.363292834817 333.8297664811204Q857.363292834817 329.86174432741143 859.6933523553089 327.785453665587Q862.0234118758008 325.7091630037625 866.1759931994496 325.7091630037625L866.1759931994496 325.7091630037625Q870.4900637967961 325.7091630037625 872.820123317288 327.785453665587Q875.1501828377799 329.86174432741143 875.1501828377799 333.8297664811204L875.1501828377799 333.8297664811204Q875.1501828377799 337.6593692573744 872.820123317288 339.8971491928963Q870.4900637967961 342.1349291284182 866.1759931994496 342.1349291284182ZM948.904641125033 442.30441861332685L907.5403171622413 442.30441861332685Q903.8722036596847 442.30441861332685 901.9804721678003 440.38961722519986Q900.0656707796733 438.47481583707287 900.0656707796733 434.8297722307588L900.0656707796733 434.8297722307588L900.0656707796733 332.6762716689957Q900.0656707796733 329.03122806268163 901.9804721678003 327.11642667455465Q903.8722036596847 325.20162528642766 907.5403171622413 325.20162528642766L907.5403171622413 325.20162528642766L946.897560151936 325.20162528642766Q959.0323255754878 325.20162528642766 967.4066979115131 328.77745920401424Q975.804140143781 332.35329312160076 980.2797000148247 339.1589125131365Q984.778329782111 345.96453190467224 984.778329782111 355.7692378077321L984.778329782111 355.7692378077321Q984.778329782111 366.72743852291677 978.3879685229402 374.0405956317873Q971.9745373675269 381.3537527406579 961.0163366523423 383.66074236490726L961.0163366523423 383.66074236490726L961.0163366523423 381.3537527406579Q973.474080623289 382.8302261001775 980.5334688734921 390.30487248274557Q987.5928571236954 397.7795188653136 987.5928571236954 410.07577356256286L987.5928571236954 410.07577356256286Q987.5928571236954 425.69409331873123 977.4651726732404 433.99925596602907Q967.3374882227855 442.30441861332685 948.904641125033 442.30441861332685L948.904641125033 442.30441861332685ZM913.3539310153498 388.48235067958854L913.3539310153498 431.34621789814224L947.5665871429683 431.34621789814224Q960.8548473786448 431.34621789814224 967.498977496483 426.0170718661262Q974.1431076143214 420.7109957303525 974.1431076143214 409.9142842888654L974.1431076143214 409.9142842888654Q974.1431076143214 398.95608357368076 967.498977496483 393.71921712663465Q960.8548473786448 388.48235067958854 947.5665871429683 388.48235067958854L947.5665871429683 388.48235067958854L913.3539310153498 388.48235067958854ZM913.3539310153498 336.1598260016123L913.3539310153498 377.52414996440393L944.9135490750815 377.52414996440393Q957.8557608671206 377.52414996440393 964.5921705699287 372.2180738286303Q971.328580272737 366.8889277966142 971.328580272737 356.92273261985684L971.328580272737 356.92273261985684Q971.328580272737 346.63355889570454 964.5921705699287 341.39669244865837Q957.8557608671206 336.1598260016123 944.9135490750815 336.1598260016123L944.9135490750815 336.1598260016123L913.3539310153498 336.1598260016123ZM1017.1684641065725 443.13493487805664L1017.1684641065725 443.13493487805664Q1013.8463990476533 443.13493487805664 1012.1853665181937 441.22013348992965Q1010.5243339887342 439.30533210180266 1010.5243339887342 435.8217777691861L1010.5243339887342 435.8217777691861L1010.5243339887342 367.88093333504145Q1010.5243339887342 364.3973790024248 1012.1853665181937 362.5748571992678Q1013.8463990476533 360.7523353961108 1017.1684641065725 360.7523353961108L1017.1684641065725 360.7523353961108Q1020.3290398917942 360.7523353961108 1022.1515616949512 362.5748571992678Q1023.9740834981083 364.3973790024248 1023.9740834981083 367.88093333504145L1023.9740834981083 367.88093333504145L1023.9740834981083 435.8217777691861Q1023.9740834981083 439.30533210180266 1022.2207713836787 441.22013348992965Q1020.4905291654916 443.13493487805664 1017.1684641065725 443.13493487805664ZM1017.1684641065725 342.1349291284182L1017.1684641065725 342.1349291284182Q1013.0158827829235 342.1349291284182 1010.6858232624317 339.8971491928963Q1008.3557637419398 337.6593692573744 1008.3557637419398 333.8297664811204L1008.3557637419398 333.8297664811204Q1008.3557637419398 329.86174432741143 1010.6858232624317 327.785453665587Q1013.0158827829235 325.7091630037625 1017.1684641065725 325.7091630037625L1017.1684641065725 325.7091630037625Q1021.4825347039189 325.7091630037625 1023.7203146394407 327.785453665587Q1025.9580945749626 329.86174432741143 1025.9580945749626 333.8297664811204L1025.9580945749626 333.8297664811204Q1025.9580945749626 337.6593692573744 1023.7203146394407 339.8971491928963Q1021.4825347039189 342.1349291284182 1017.1684641065725 342.1349291284182ZM1082.617759746528 443.803961869089L1082.617759746528 443.803961869089Q1070.805972870371 443.803961869089 1062.1778316756781 438.65937500701284Q1053.5496904809856 433.4917182486942 1048.7972918550317 424.12534037424166Q1044.0679631253206 414.73589260354663 1044.0679631253206 401.93210018896247L1044.0679631253206 401.93210018896247Q1044.0679631253206 392.3119534558425 1046.721001193207 384.583538214607Q1049.3971091573367 376.8551229733716 1054.541696019413 371.38755756390054Q1059.6862828814888 365.896922258187 1066.7456711316918 362.9901153316327Q1073.8050593818953 360.08330840507847 1082.617759746528 360.08330840507847L1082.617759746528 360.08330840507847Q1094.4064767264422 360.08330840507847 1103.0346179211351 365.2278952671546Q1111.6858290120704 370.3724821292308 1116.4151577417815 379.7619298999258Q1121.1444864714927 389.15137767062083 1121.1444864714927 401.93210018896247L1121.1444864714927 401.93210018896247Q1121.1444864714927 411.57531681832495 1118.4914484036058 419.21145247459043Q1115.838410335719 426.84758813085597 1110.6707535774003 432.43050302153944Q1105.5261667153245 437.9903480159805 1098.466778465121 440.89715494253477Q1091.407390214918 443.803961869089 1082.617759746528 443.803961869089ZM1082.617759746528 433.00725042760183L1082.617759746528 433.00725042760183Q1090.0924061290957 433.00725042760183 1095.7214608122645 429.3391369250453Q1101.3735853916755 425.69409331873123 1104.441881591927 418.72698465349805Q1107.5332476884214 411.7368060920224 1107.5332476884214 401.93210018896247L1107.5332476884214 401.93210018896247Q1107.5332476884214 386.82131815012895 1100.796837985613 378.8622039464686Q1094.0604282828049 370.88001984656563 1082.617759746528 370.88001984656563L1082.617759746528 370.88001984656563Q1074.9585541940196 370.88001984656563 1069.3987091995787 374.4558537641522Q1063.8388642051377 378.0316876817388 1060.7705680048862 384.90651676200196Q1057.7022718046342 391.80441573850766 1057.7022718046342 401.93210018896247L1057.7022718046342 401.93210018896247Q1057.7022718046342 416.88139295409854 1064.50789119617 424.95585663897145Q1071.3135105877059 433.00725042760183 1082.617759746528 433.00725042760183ZM1168.6454028347875 443.803961869089L1168.6454028347875 443.803961869089Q1161.1707564522198 443.803961869089 1153.6269003809243 441.98144006593196Q1146.059974413386 440.13584836653246 1139.5773335692452 435.6602884954886L1139.5773335692452 435.6602884954886Q1137.9163010397856 434.5067936833639 1137.2472740487533 432.9149708426318Q1136.6013169539638 431.34621789814224 1136.8320159163886 429.7543950574102Q1137.0857847750563 428.18564211292056 1138.1700698984532 427.0321473007959Q1139.2543550218502 425.8555825924287 1140.82310796634 425.6018137337613Q1142.4149308070723 425.3711147713363 1144.3989418839265 426.3631203097636L1144.3989418839265 426.3631203097636Q1150.8815827280673 430.354212359715 1156.948965439843 431.92296530420464Q1162.9932782553765 433.4917182486942 1168.9914512784253 433.4917182486942L1168.9914512784253 433.4917182486942Q1178.4501087378476 433.4917182486942 1183.2717170525289 430.0081639160776Q1188.0933253672101 426.52460958346103 1188.0933253672101 420.5495064566551L1188.0933253672101 420.5495064566551Q1188.0933253672101 415.8893874156713 1184.9327495819884 413.1440697628145Q1181.7721737967668 410.4218220062003 1174.966554405231 408.9222787504381L1174.966554405231 408.9222787504381L1159.8557723663976 405.60021369151906Q1149.3820394723052 403.4316434447246 1144.3066622989568 398.125567308951Q1139.2543550218502 392.7964212769349 1139.2543550218502 384.3297693559396L1139.2543550218502 384.3297693559396Q1139.2543550218502 376.8551229733716 1143.153167486832 371.456767252628Q1147.0519799518133 366.0584115318844 1154.2036477869865 363.0823949166027Q1161.332245725917 360.08330840507847 1170.8139730815824 360.08330840507847L1170.8139730815824 360.08330840507847Q1178.1271301904526 360.08330840507847 1184.6789807233208 361.99810979320546Q1191.230831256189 363.9129111813325 1196.5599772882056 368.06549250498136L1196.5599772882056 368.06549250498136Q1198.2210098176652 369.2189873171061 1198.7977572237273 370.7877402615957Q1199.3745046297895 372.3795631023278 1198.9592464974248 373.94831604681735Q1198.5439883650597 375.5401388875494 1197.390493552935 376.6013541147041Q1196.2139288445678 377.6856392381014 1194.5528963151082 377.8471285117988Q1192.8918637856486 378.0316876817388 1191.069341982492 376.8551229733716L1191.069341982492 376.8551229733716Q1186.0862443941132 373.53305791445246 1180.941657532037 371.9643049699629Q1175.7970706699607 370.3724821292308 1170.8139730815824 370.3724821292308L1170.8139730815824 370.3724821292308Q1161.5168048958571 370.3724821292308 1156.6951965811759 374.0405956317873Q1151.8735882664946 377.6856392381014 1151.8735882664946 383.66074236490726L1151.8735882664946 383.66074236490726Q1151.8735882664946 388.3208614058911 1154.8726747780188 391.3199479174153Q1157.8486913933007 394.295964532697 1164.169842963744 395.63401851476164L1164.169842963744 395.63401851476164L1179.2806250025774 398.7945942999833Q1190.0773364440647 401.10158392423267 1195.4756921648082 406.1769610975814Q1200.8740478855516 411.25233827093 1200.8740478855516 419.8804794656228L1200.8740478855516 419.8804794656228Q1200.8740478855516 430.8386801808074 1192.0613475209188 437.3213210249482Q1183.2717170525289 443.803961869089 1168.6454028347875 443.803961869089ZM1227.9581060742398 443.4579134254516L1227.9581060742398 443.4579134254516Q1224.6360410153206 443.4579134254516 1222.975008485861 441.63539162229455Q1221.3139759564015 439.8128698191375 1221.3139759564015 436.4908047602184L1221.3139759564015 436.4908047602184L1221.3139759564015 330.85374986583867Q1221.3139759564015 327.53168480691954 1222.975008485861 325.77837269249Q1224.6360410153206 324.048130474303 1227.9581060742398 324.048130474303L1227.9581060742398 324.048130474303Q1231.0956119632187 324.048130474303 1232.9412036626181 325.77837269249Q1234.7637254657752 327.53168480691954 1234.7637254657752 330.85374986583867L1234.7637254657752 330.85374986583867L1234.7637254657752 397.45654031791867L1235.0867040131702 397.45654031791867L1269.1378708670914 364.90491671975974Q1271.4679303875832 362.7363464729653 1273.221242502013 361.5828516608406Q1274.9514847202 360.4062869524734 1277.950571231724 360.4062869524734L1277.950571231724 360.4062869524734Q1280.603609299611 360.4062869524734 1282.103152555373 361.836620519508Q1283.6026958111352 363.24388419030015 1283.510416226165 365.32017485212464Q1283.418136641195 367.39646551394907 1281.4341255643408 369.72652503444095L1281.4341255643408 369.72652503444095L1245.2143884636253 404.1006704357569L1245.2143884636253 396.7875133268863L1284.594701349562 433.8377666923316Q1286.9247608700543 436.1678262128235 1286.9247608700543 438.3133265633754Q1286.9247608700543 440.48189681016987 1285.3329380293221 441.98144006593196Q1283.7641850848327 443.4579134254516 1281.2726362906433 443.4579134254516L1281.2726362906433 443.4579134254516Q1278.273549779119 443.4579134254516 1276.451027975962 442.2121390283569Q1274.628506172805 440.96636463126225 1271.975468104918 438.47481583707287L1271.975468104918 438.47481583707287L1235.0867040131702 404.42364898315185L1234.7637254657752 404.42364898315185L1234.7637254657752 436.4908047602184Q1234.7637254657752 443.4579134254516 1227.9581060742398 443.4579134254516ZM1335.740661319171 443.803961869089L1335.740661319171 443.803961869089Q1323.951944339257 443.803961869089 1315.3238031445644 438.65937500701284Q1306.6725920536292 433.4917182486942 1301.9432633239176 424.12534037424166Q1297.2139345942064 414.73589260354663 1297.2139345942064 401.93210018896247L1297.2139345942064 401.93210018896247Q1297.2139345942064 392.3119534558425 1299.8669726620933 384.583538214607Q1302.5200107299802 376.8551229733716 1307.6876674882988 371.38755756390054Q1312.8322543503746 365.896922258187 1319.891642600578 362.9901153316327Q1326.951030850781 360.08330840507847 1335.740661319171 360.08330840507847L1335.740661319171 360.08330840507847Q1347.552448195328 360.08330840507847 1356.180589390021 365.2278952671546Q1364.8087305847139 370.3724821292308 1369.5611292106673 379.7619298999258Q1374.290457940379 389.15137767062083 1374.290457940379 401.93210018896247L1374.290457940379 401.93210018896247Q1374.290457940379 411.57531681832495 1371.6374198724916 419.21145247459043Q1368.9613119083624 426.84758813085597 1363.8167250462861 432.43050302153944Q1358.6721381842103 437.9903480159805 1351.6127499340068 440.89715494253477Q1344.5533616838038 443.803961869089 1335.740661319171 443.803961869089ZM1335.740661319171 433.00725042760183L1335.740661319171 433.00725042760183Q1343.2153077017392 433.00725042760183 1348.8674322811503 429.3391369250453Q1354.5195568605614 425.69409331873123 1357.587853060813 418.72698465349805Q1360.6561492610645 411.7368060920224 1360.6561492610645 401.93210018896247L1360.6561492610645 401.93210018896247Q1360.6561492610645 386.82131815012895 1353.9428094544992 378.8622039464686Q1347.2063997516907 370.88001984656563 1335.740661319171 370.88001984656563L1335.740661319171 370.88001984656563Q1328.1045256629059 370.88001984656563 1322.544680668465 374.4558537641522Q1316.9848356740235 378.0316876817388 1313.916539473772 384.90651676200196Q1310.8251733772777 391.80441573850766 1310.8251733772777 401.93210018896247L1310.8251733772777 401.93210018896247Q1310.8251733772777 416.88139295409854 1317.6538626650563 424.95585663897145Q1324.4594820565917 433.00725042760183 1335.740661319171 433.00725042760183ZM1401.1899569591264 473.35649895572374L1401.1899569591264 473.35649895572374Q1397.8678919002073 473.35649895572374 1396.2068593707477 471.62625673753666Q1394.5458268412885 469.8729446231071 1394.5458268412885 466.550879564188L1394.5458268412885 466.550879564188L1394.5458268412885 367.2349762402516Q1394.5458268412885 363.9129111813325 1396.2068593707477 362.15959906690296Q1397.8678919002073 360.4062869524734 1401.028467685429 360.4062869524734L1401.028467685429 360.4062869524734Q1404.3505327443481 360.4062869524734 1406.1038448587778 362.15959906690296Q1407.8340870769648 363.9129111813325 1407.8340870769648 367.2349762402516L1407.8340870769648 367.2349762402516L1407.8340870769648 383.01478527011744L1406.0115652738077 380.68472574962556Q1408.6646033416946 371.20299839396057 1416.5545078566274 365.6431533995195Q1424.4444123715602 360.08330840507847 1435.402613086745 360.08330840507847L1435.402613086745 360.08330840507847Q1446.1993245282324 360.08330840507847 1454.273788213105 365.15868557842714Q1462.3251820017354 370.21099285553333 1466.731532184052 379.60044062622836Q1471.1148124701258 388.9898883969234 1471.1148124701258 401.93210018896247L1471.1148124701258 401.93210018896247Q1471.1148124701258 414.73589260354663 1466.731532184052 424.12534037424166Q1462.3251820017354 433.4917182486942 1454.3429979018329 438.65937500701284Q1446.3838836981722 443.803961869089 1435.402613086745 443.803961869089L1435.402613086745 443.803961869089Q1424.4444123715602 443.803961869089 1416.6467874415976 438.24411687464794Q1408.826092615392 432.6612019839644 1406.0115652738077 423.36403379823935L1406.0115652738077 423.36403379823935L1407.9955763506623 423.36403379823935L1407.9955763506623 466.550879564188Q1407.9955763506623 469.8729446231071 1406.1730545475052 471.62625673753666Q1404.3505327443481 473.35649895572374 1401.1899569591264 473.35649895572374ZM1432.5880857451607 433.00725042760183L1432.5880857451607 433.00725042760183Q1440.2242214014263 433.00725042760183 1445.7840663958673 429.3391369250453Q1451.366981286551 425.69409331873123 1454.4352774868025 418.72698465349805Q1457.5035736870545 411.7368060920224 1457.5035736870545 401.93210018896247L1457.5035736870545 401.93210018896247Q1457.5035736870545 386.82131815012895 1450.767163984246 378.8622039464686Q1444.0538241776803 370.88001984656563 1432.5880857451607 370.88001984656563L1432.5880857451607 370.88001984656563Q1425.113439362593 370.88001984656563 1419.461314783182 374.4558537641522Q1413.8091902037709 378.0316876817388 1410.7408940035189 384.90651676200196Q1407.6725978032673 391.80441573850766 1407.6725978032673 401.93210018896247L1407.6725978032673 401.93210018896247Q1407.6725978032673 416.88139295409854 1414.4782171948032 424.95585663897145Q1421.2838365863386 433.00725042760183 1432.5880857451607 433.00725042760183Z " fill="#8000ff" transform="matrix(0.5947870320953675,0,0,0.5947870320953677,0,62.65134200934672)"/></g></svg>